<?xml version="1.0" encoding="UTF-8"?>
<svg class="icon" width="12" height="12" fill="currentColor" aria-hidden="true" aria-label="" role="img" viewBox="0 0 24 24" xmlns="http://www.w3.org/2000/svg">
<path d="m24 13.081c-0.2102 2.2744-1.0638 4.4419-2.4609 6.249-1.3971 1.807-3.28 3.1787-5.4282 3.9547-2.1483 0.776-4.4731 0.9241-6.7025 0.427-2.2294-0.4971-4.2711-1.6189-5.8862-3.234-1.6151-1.6151-2.7369-3.6568-3.2339-5.8862s-0.349-4.5542 0.42698-6.7025c0.77597-2.1483 2.1477-4.0311 3.9547-5.4282 1.807-1.3971 3.9746-2.2507 6.249-2.4609-1.3316 1.8015-1.9724 4.0211-1.8058 6.2552 0.1666 2.234 1.1295 4.334 2.7136 5.9181s3.6841 2.547 5.9181 2.7136c2.2341 0.1666 4.4537-0.4742 6.2552-1.8058z"/>
</svg>
